
<svg width="30px" height="8px" viewBox="0 0 30 8" version="1.1" xmlns="http://www.w3.org/2000/svg" xmlns:xlink="http://www.w3.org/1999/xlink">
    <g id="web" stroke="none" stroke-width="1" fill="none" fill-rule="evenodd">
        <g id="Home" transform="translate(-366.000000, -143.000000)" fill="#313131">
            <g id="Header" transform="translate(1.000000, 0.000000)">
                <g id="Menu" transform="translate(347.000000, 112.000000)">
                    <g id="active-menu" transform="translate(18.000000, 31.000000)">
                        <path d="M5.12875428,0.297356919 C7.18371927,0.995106881 9.64863329,3.93825654 11.5574022,4.45175378 C12.8389886,4.79652627 13.8672386,3.7934572 13.8842966,2.94566802 C13.9013547,2.09787885 13.2636004,1.98518039 13.0695129,1.97832885 C12.4788266,1.95747686 11.7544586,2.50518418 11.7442649,2.35554862 C11.7300883,2.14744657 12.0008853,1.61391172 12.6058348,1.4025404 C13.2107843,1.19116908 13.6511744,1.28417883 13.9302116,1.45003231 C14.2506141,1.64047235 14.890207,2.34428077 14.8278039,3.34207669 C14.7654008,4.33987261 14.0371564,5.90226123 12.4797612,6.92226511 C11.244868,7.73104881 7.44270821,8.55858641 3.80363934,7.49817383 C1.82726569,6.92226511 -0.52478044,5.34947599 0.103734289,2.68816624 C0.732249018,0.0268564848 3.07378929,-0.400393043 5.12875428,0.297356919 Z" id="Path-2-Copy" transform="translate(7.416029, 4.000000) scale(-1, 1) translate(-7.416029, -4.000000) "></path>
                        <path d="M20.1287543,0.297356919 C22.1837193,0.995106881 24.6486333,3.93825654 26.5574022,4.45175378 C27.8389886,4.79652627 28.8672386,3.7934572 28.8842966,2.94566802 C28.9013547,2.09787885 28.2636004,1.98518039 28.0695129,1.97832885 C27.4788266,1.95747686 26.7544586,2.50518418 26.7442649,2.35554862 C26.7300883,2.14744657 27.0008853,1.61391172 27.6058348,1.4025404 C28.2107843,1.19116908 28.6511744,1.28417883 28.9302116,1.45003231 C29.2506141,1.64047235 29.890207,2.34428077 29.8278039,3.34207669 C29.7654008,4.33987261 29.0371564,5.90226123 27.4797612,6.92226511 C26.244868,7.73104881 22.4427082,8.55858641 18.8036393,7.49817383 C16.8272657,6.92226511 14.4752196,5.34947599 15.1037343,2.68816624 C15.732249,0.0268564848 18.0737893,-0.400393043 20.1287543,0.297356919 Z" id="Path-2-Copy-3"></path>
                    </g>
                </g>
            </g>
        </g>
    </g>
</svg>