<?xml version="1.0" encoding="UTF-8"?>
<svg width="35px" height="35px" viewBox="0 0 35 35" version="1.1" xmlns="http://www.w3.org/2000/svg" xmlns:xlink="http://www.w3.org/1999/xlink">
    <!-- Generator: Sketch 43 (38999) - http://www.bohemiancoding.com/sketch -->
    <title></title>
    <desc>Created with Sketch.</desc>
    <defs></defs>
    <g id="web" stroke="none" stroke-width="1" fill="none" fill-rule="evenodd">
        <g id="Home" transform="translate(-624.000000, -1109.000000)" fill="#fff">
            <g id="Group" transform="translate(252.000000, 869.000000)">
                <g id="Group-5" transform="translate(372.000000, 21.000000)">
                    <g id="Group-4" transform="translate(0.000000, 219.000000)">
                        <path d="M28.4732409,0.5 L6.95536327,0.5 C3.3914648,0.5 0.5,3.3914648 0.5,6.95536327 L0.5,28.4732409 C0.5,32.0371393 3.3914648,34.9286041 6.95536327,34.9286041 L18.8798538,34.9286041 L18.8798538,21.5920029 L14.3969626,21.5920029 L14.3969626,16.3918492 L18.8798538,16.3918492 L18.8798538,12.5589772 C18.8798538,8.12091498 21.6144174,5.70015375 25.5817761,5.70015375 C27.4645903,5.70015375 29.1008456,5.83464048 29.5715492,5.90188385 L29.5715492,10.5416762 L26.8369856,10.5640907 C24.6627834,10.5640907 24.2593232,11.5727412 24.2593232,13.0745097 L24.2593232,16.3918492 L29.3922335,16.3918492 L28.7197999,21.5920029 L24.2593232,21.5920029 L24.2593232,34.9286041 L28.4732409,34.9286041 C32.0371393,34.9286041 34.9286041,32.0371393 34.9286041,28.4732409 L34.9286041,6.95536327 C34.9286041,3.3914648 32.0371393,0.5 28.4732409,0.5 Z" id=""></path>
                    </g>
                </g>
            </g>
        </g>
    </g>
</svg>