<?xml version="1.0" encoding="UTF-8"?>
<svg width="401px" height="323px" viewBox="0 0 401 323" version="1.1" xmlns="http://www.w3.org/2000/svg" xmlns:xlink="http://www.w3.org/1999/xlink">
    <!-- Generator: Sketch 43 (38999) - http://www.bohemiancoding.com/sketch -->
    <title>Group 3 Copy</title>
    <desc>Created with Sketch.</desc>
    <defs></defs>
    <g id="web" stroke="none" stroke-width="1" fill="none" fill-rule="evenodd">
        <g id="Home" transform="translate(-964.000000, -4920.000000)" fill-rule="nonzero">
            <g id="Footer" transform="translate(-1.000000, 4860.000000)">
                <g id="Group-3-Copy" transform="translate(960.000000, 20.000000)">
                    <g id="Group-Copy" transform="translate(187.735130, 155.247501) rotate(-24.000000) translate(-187.735130, -155.247501) translate(53.735130, 45.747501)" opacity="0.701539855">
                        <path d="M9.59913213,21.5782846 L9.59913213,4.67377574 C9.59913213,3.19709017 10.7938592,2 12.2698953,2 L24.7679343,2 C26.2429561,2 27.4386975,3.19721583 27.4386975,4.67377574 L27.4386975,21.6084155 C28.524348,22.4726524 29.5849763,23.2747311 30.5200206,23.5268705 C31.8819632,23.8941252 32.9746851,22.8256471 32.9928127,21.9225745 C33.0109403,21.0195018 32.3331985,20.8994544 32.1269416,20.8921561 C31.4992188,20.8699444 30.7294325,21.4533671 30.7185997,21.293974 C30.7035342,21.0723018 30.9913103,20.5039757 31.6341905,20.2788211 C32.2770708,20.0536665 32.7450735,20.1527413 33.0416066,20.3294099 C33.3820985,20.5322683 34.0617943,21.2819714 33.9954785,22.3448325 C33.9291627,23.4076937 33.1552568,25.071964 31.500212,26.1584813 C30.7908172,26.6241906 29.284204,27.0957373 27.4386975,27.2523016 L27.4386975,32.6884547 C27.4386975,34.1651403 26.2439703,35.3622304 24.7679343,35.3622304 L20.8763451,35.3622304 L20.8763451,43.2291522 C20.8763451,43.9868511 20.2625412,44.602013 19.5076084,44.602013 L17.4720887,44.602013 C16.7159464,44.602013 16.103352,43.9876413 16.103352,43.2291522 L16.103352,35.3622304 L12.2698953,35.3622304 C10.7948735,35.3622304 9.59913213,34.1650146 9.59913213,32.6884547 L9.59913213,27.2554628 C7.73639601,27.1021734 6.21402387,26.6273687 5.49978799,26.1584813 C3.84474315,25.071964 3.07083732,23.4076937 3.00452153,22.3448325 C2.93820574,21.2819714 3.6179015,20.5322683 3.95839341,20.3294099 C4.25492645,20.1527413 4.72292922,20.0536665 5.36580948,20.2788211 C6.00868974,20.5039757 6.2964658,21.0723018 6.28140034,21.293974 C6.27056754,21.4533671 5.50078115,20.8699444 4.87305843,20.8921561 C4.66680152,20.8994544 3.98905968,21.0195018 4.00718729,21.9225745 C4.0253149,22.8256471 5.1180368,23.8941252 6.47997941,23.5268705 C7.42588137,23.2718032 8.50030095,22.4539508 9.59913213,21.5782846 Z M10.9189586,20.5349742 C11.7404388,19.9075698 12.5524067,19.3599939 13.3117076,19.1015697 C15.3543336,18.4063724 17.6633979,18.7595921 18.5,21.1279711 C19.3366021,18.7595921 21.6456664,18.4063724 23.6882924,19.1015697 C24.4504189,19.3609556 25.2656051,19.9116492 26.0902128,20.5419818 L26.0902128,4.65941281 C26.0902128,3.92174125 25.4921073,3.32294167 24.7536052,3.32294167 L12.2555662,3.32294167 C11.5164253,3.32294167 10.9189586,3.92123929 10.9189586,4.65941281 L10.9189586,20.5349742 Z M10.9189586,27.3063003 L10.9189586,32.6740918 C10.9189586,33.4117633 11.517064,34.0105629 12.2555662,34.0105629 L24.7536052,34.0105629 C25.4927461,34.0105629 26.0902128,33.4122653 26.0902128,32.6740918 L26.0902128,27.3063439 C24.8722013,27.3009118 23.5665569,27.1477009 22.2800919,26.7719444 C20.8052706,26.341172 19.1335975,25.3868031 18.5,23.8750391 C17.8664025,25.3868031 16.1947294,26.341172 14.7199081,26.7719444 C13.4366714,27.1467579 12.1343516,27.3001415 10.9189586,27.3063003 Z" id="Combined-Shape" fill="#5EB1FF" transform="translate(18.500000, 23.301007) rotate(-8.000000) translate(-18.500000, -23.301007) "></path>
                        <path d="M230.133429,189.288953 L230.133429,171.389582 C230.133429,169.82599 231.398468,168.558449 232.961372,168.558449 L246.194944,168.558449 C247.756774,168.558449 249.022887,169.826123 249.022887,171.389582 L249.022887,189.320858 C250.17243,190.235957 251.295478,191.085239 252.285552,191.352217 C253.727647,191.741086 254.884678,190.609726 254.903872,189.653505 C254.923067,188.697285 254.205439,188.570173 253.987043,188.562445 C253.322378,188.538926 252.507288,189.156684 252.495818,188.987911 C252.479866,188.753193 252.784578,188.151419 253.465293,187.913014 C254.146008,187.674609 254.641553,187.779514 254.955538,187.96658 C255.316068,188.181377 256.035766,188.975202 255.965547,190.100614 C255.895328,191.226027 255.075877,192.988243 253.323429,194.138704 C252.572285,194.631821 250.977005,195.131119 249.022887,195.296897 L249.022887,201.052978 C249.022887,202.61657 247.757848,203.884111 246.194944,203.884111 L242.074327,203.884111 L242.074327,212.214016 C242.074327,213.016307 241.4244,213.667673 240.625038,213.667673 L238.469724,213.667673 C237.669081,213.667673 237.020435,213.017144 237.020435,212.214016 L237.020435,203.884111 L232.961372,203.884111 C231.399542,203.884111 230.133429,202.616437 230.133429,201.052978 L230.133429,195.300245 C228.161067,195.137934 226.5491,194.635186 225.79283,194.138704 C224.040383,192.988243 223.220931,191.226027 223.150713,190.100614 C223.080494,188.975202 223.800191,188.181377 224.160722,187.96658 C224.474706,187.779514 224.970252,187.674609 225.650967,187.913014 C226.331682,188.151419 226.636394,188.753193 226.620442,188.987911 C226.608972,189.156684 225.793882,188.538926 225.129217,188.562445 C224.910821,188.570173 224.193193,188.697285 224.212387,189.653505 C224.231582,190.609726 225.388612,191.741086 226.830708,191.352217 C227.832278,191.082139 228.969929,190.216154 230.133429,189.288953 Z M231.53093,188.184242 C232.400756,187.519914 233.260509,186.940112 234.064496,186.666479 C236.227335,185.930368 238.672292,186.304376 239.55813,188.812138 C240.443968,186.304376 242.888925,185.930368 245.051763,186.666479 C245.858742,186.94113 246.721904,187.524233 247.595041,188.191662 L247.595041,171.374374 C247.595041,170.593289 246.961736,169.959249 246.179772,169.959249 L232.946199,169.959249 C232.163558,169.959249 231.53093,170.592757 231.53093,171.374374 L231.53093,188.184242 Z M231.53093,195.354074 L231.53093,201.03777 C231.53093,201.818855 232.164235,202.452895 232.946199,202.452895 L246.179772,202.452895 C246.962413,202.452895 247.595041,201.819387 247.595041,201.03777 L247.595041,195.35412 C246.305347,195.348368 244.922863,195.186141 243.560688,194.78827 C241.99907,194.332146 240.229016,193.321611 239.55813,191.720876 C238.887244,193.321611 237.11719,194.332146 235.555572,194.78827 C234.196815,195.185142 232.817851,195.347553 231.53093,195.354074 Z" id="Combined-Shape-Copy-2" fill="#ACFF79" transform="translate(239.558130, 191.113061) rotate(-315.000000) translate(-239.558130, -191.113061) "></path>
                    </g>
                    <g id="Group-Copy-5" transform="translate(176.387332, 207.231816) rotate(31.000000) translate(-176.387332, -207.231816) translate(134.887332, 158.231816)" fill="#C67FFF" opacity="0.695369112">
                        <path d="M23.9737316,45.4904266 L23.9737316,12.2565774 C23.9737316,9.35344987 26.3225358,7 29.2243864,7 L53.795224,7 C56.6950806,7 59.0458788,9.35369691 59.0458788,12.2565774 L59.0458788,45.5496631 C61.180241,47.2487316 63.2654104,48.8255986 65.1036844,49.3212985 C67.7812301,50.0433124 69.9294945,47.9427105 69.9651329,46.1672919 C70.0007714,44.3918733 68.6683476,44.1558631 68.2628516,44.1415148 C67.0287641,44.097847 65.515383,45.2448418 65.4940859,44.9314788 C65.4644676,44.4956768 66.0302283,43.3783616 67.2941151,42.9357132 C68.5580019,42.4930647 69.4780838,42.6878434 70.0610605,43.0351695 C70.7304592,43.4339842 72.0667244,44.907882 71.9363492,46.9974409 C71.805974,49.0869998 70.2844941,52.3589145 67.0307166,54.4949807 C65.6360638,55.4105537 62.6740993,56.337603 59.0458788,56.6454046 L59.0458788,67.332748 C59.0458788,70.2358756 56.6970747,72.5893254 53.795224,72.5893254 L46.1444553,72.5893254 L46.1444553,88.0555003 C46.1444553,89.5451177 44.9377319,90.754511 43.4535526,90.754511 L39.4517709,90.754511 C37.9652136,90.754511 36.7608682,89.5466712 36.7608682,88.0555003 L36.7608682,72.5893254 L29.2243864,72.5893254 C26.3245299,72.5893254 23.9737316,70.2356285 23.9737316,67.332748 L23.9737316,56.6516194 C20.3116382,56.3502563 17.318692,55.4168018 15.9145218,54.4949807 C12.6607443,52.3589145 11.1392644,49.0869998 11.0088892,46.9974409 C10.878514,44.907882 12.2147792,43.4339842 12.8841779,43.0351695 C13.4671546,42.6878434 14.3872365,42.4930647 15.6511233,42.9357132 C16.9150101,43.3783616 17.4807708,44.4956768 17.4511525,44.9314788 C17.4298554,45.2448418 15.9164743,44.097847 14.6823869,44.1415148 C14.2768908,44.1558631 12.944467,44.3918733 12.9801055,46.1672919 C13.0157439,47.9427105 15.1640083,50.0433124 17.841554,49.3212985 C19.701174,48.8198425 21.8134565,47.2119648 23.9737316,45.4904266 Z M26.568478,43.4393038 C28.183488,42.2058422 29.7797968,41.1293216 31.2725638,40.6212659 C35.2883163,39.254525 39.8278799,39.9489464 41.4726192,44.6051213 C43.1173585,39.9489464 47.6569221,39.254525 51.6726746,40.6212659 C53.1709967,41.1312122 54.7736326,42.2138622 56.3947912,43.4530807 L56.3947912,12.2283403 C56.3947912,10.7780961 55.2189305,9.60087083 53.7670534,9.60087083 L29.1962158,9.60087083 C27.7430829,9.60087083 26.568478,10.7771092 26.568478,12.2283403 L26.568478,43.4393038 Z M26.568478,56.7515646 L26.568478,67.3045109 C26.568478,68.754755 27.7443387,69.9319803 29.1962158,69.9319803 L53.7670534,69.9319803 C55.2201862,69.9319803 56.3947912,68.7557419 56.3947912,67.3045109 L56.3947912,56.7516505 C54.0002104,56.740971 51.4333457,56.4397621 48.9041871,55.7010342 C46.0047246,54.8541462 42.7182564,52.9778803 41.4726192,50.0057894 C40.226982,52.9778803 36.9405139,54.8541462 34.0410513,55.7010342 C31.5182396,56.4379083 28.9579108,56.7394565 26.568478,56.7515646 Z" id="Combined-Shape" transform="translate(41.472619, 48.877256) rotate(-16.000000) translate(-41.472619, -48.877256) "></path>
                    </g>
                    <g id="Group-Copy-6" transform="translate(281.065561, 206.439068) rotate(-375.000000) translate(-281.065561, -206.439068) translate(188.565561, 27.439068)" opacity="0.695369112">
                        <path d="M138.556785,313.253431 L138.556785,281.087643 C138.556785,278.277815 140.830104,276 143.638696,276 L167.419882,276 C170.226544,276 172.501793,278.278054 172.501793,281.087643 L172.501793,313.310764 C174.567562,314.955228 176.585718,316.481418 178.364914,316.961188 C180.95641,317.659998 183.035634,315.626904 183.070127,313.908544 C183.10462,312.190183 181.815017,311.961758 181.422553,311.94787 C180.228126,311.905606 178.763382,313.015739 178.742769,312.712447 C178.714103,312.290651 179.261681,311.209243 180.48495,310.780821 C181.708218,310.352398 182.59873,310.540917 183.162972,310.877081 C183.810857,311.263078 185.104178,312.689608 184.977993,314.712014 C184.851808,316.734419 183.379225,319.901182 180.230016,321.9686 C178.880184,322.854748 176.013411,323.752004 172.501793,324.049914 L172.501793,334.39379 C172.501793,337.203618 170.228474,339.481433 167.419882,339.481433 L160.014992,339.481433 L160.014992,354.45056 C160.014992,355.892304 158.84705,357.06283 157.410569,357.06283 L153.537395,357.06283 C152.098613,357.06283 150.932972,355.893808 150.932972,354.45056 L150.932972,339.481433 L143.638696,339.481433 C140.832034,339.481433 138.556785,337.203378 138.556785,334.39379 L138.556785,324.055929 C135.012383,323.764251 132.115624,322.860795 130.75658,321.9686 C127.607372,319.901182 126.134789,316.734419 126.008604,314.712014 C125.882418,312.689608 127.175739,311.263078 127.823625,310.877081 C128.387866,310.540917 129.278378,310.352398 130.501647,310.780821 C131.724915,311.209243 132.272493,312.290651 132.243827,312.712447 C132.223214,313.015739 130.75847,311.905606 129.564043,311.94787 C129.171579,311.961758 127.881976,312.190183 127.916469,313.908544 C127.950962,315.626904 130.030187,317.659998 132.621682,316.961188 C134.421538,316.475847 136.465937,314.919643 138.556785,313.253431 Z M141.068142,311.268227 C142.63125,310.074406 144.176257,309.032482 145.621049,308.540755 C149.507745,307.217938 153.901417,307.890042 155.493298,312.396578 C157.085179,307.890042 161.478852,307.217938 165.365547,308.540755 C166.815716,309.034312 168.366847,310.082168 169.935905,311.281561 L169.935905,281.060313 C169.935905,279.656677 168.797834,278.517285 167.392617,278.517285 L143.611431,278.517285 C142.204998,278.517285 141.068142,279.655721 141.068142,281.060313 L141.068142,311.268227 Z M141.068142,324.152662 L141.068142,334.36646 C141.068142,335.770097 142.206213,336.909489 143.611431,336.909489 L167.392617,336.909489 C168.799049,336.909489 169.935905,335.771052 169.935905,334.36646 L169.935905,324.152745 C167.618281,324.142409 165.133909,323.85088 162.686032,323.135893 C159.879752,322.316222 156.698903,320.500255 155.493298,317.623681 C154.287693,320.500255 151.106844,322.316222 148.300564,323.135893 C145.85883,323.849086 143.380784,324.140943 141.068142,324.152662 Z" id="Combined-Shape" fill="#FF4E4E"></path>
                        <path d="M10.6832551,289.894267 L10.6832551,277.897518 C10.6832551,276.849548 11.5311259,276 12.5786354,276 L21.4482114,276 C22.4950011,276 23.3435917,276.849637 23.3435917,277.897518 L23.3435917,289.91565 C24.1140534,290.528979 24.8667574,291.098196 25.5303372,291.277134 C26.4968771,291.537766 27.2723572,290.779491 27.2852219,290.138601 C27.2980867,289.497711 26.8171086,289.412516 26.6707327,289.407337 C26.2252521,289.391573 25.6789521,289.805615 25.6712643,289.692498 C25.6605727,289.535182 25.8648008,289.131854 26.3210384,288.972067 C26.777276,288.812279 27.109407,288.882591 27.3198498,289.007968 C27.5614893,289.151932 28.043854,289.68398 27.9967912,290.438268 C27.9497284,291.192557 27.4005049,292.373652 26.2259569,293.144729 C25.7225154,293.475232 24.6533061,293.809878 23.3435917,293.920988 L23.3435917,297.778903 C23.3435917,298.826874 22.4957209,299.676422 21.4482114,299.676422 L18.6864385,299.676422 L18.6864385,305.259398 C18.6864385,305.79712 18.2508357,306.233687 17.7150769,306.233687 L16.2705146,306.233687 C15.7338974,306.233687 15.2991531,305.797681 15.2991531,305.259398 L15.2991531,299.676422 L12.5786354,299.676422 C11.5318457,299.676422 10.6832551,298.826785 10.6832551,297.778903 L10.6832551,293.923232 C9.3613133,293.814446 8.28092017,293.477487 7.77404309,293.144729 C6.59949514,292.373652 6.05027165,291.192557 6.00320883,290.438268 C5.95614601,289.68398 6.43851074,289.151932 6.68015016,289.007968 C6.89059297,288.882591 7.22272397,288.812279 7.67896157,288.972067 C8.13519917,289.131854 8.33942734,289.535182 8.32873573,289.692498 C8.32104793,289.805615 7.77474792,289.391573 7.32926727,289.407337 C7.1828914,289.412516 6.70191332,289.497711 6.71477808,290.138601 C6.72764283,290.779491 7.50312289,291.537766 8.4696628,291.277134 C9.14094807,291.096118 9.90343938,290.515707 10.6832551,289.894267 Z M11.6199061,289.153853 C12.2028921,288.708598 12.7791273,288.319996 13.317986,288.136598 C14.7675916,287.643232 16.4062823,287.893904 17,289.574689 C17.5937177,287.893904 19.2324084,287.643232 20.682014,288.136598 C21.222878,288.320678 21.8013972,288.711493 22.3866027,289.158826 L22.3866027,277.887325 C22.3866027,277.363816 21.9621407,276.938862 21.4380424,276.938862 L12.5684663,276.938862 C12.0439147,276.938862 11.6199061,277.36346 11.6199061,277.887325 L11.6199061,289.153853 Z M11.6199061,293.95931 L11.6199061,297.76871 C11.6199061,298.292219 12.044368,298.717174 12.5684663,298.717174 L21.4380424,298.717174 C21.962594,298.717174 22.3866027,298.292575 22.3866027,297.76871 L22.3866027,293.959341 C21.5222074,293.955486 20.5956211,293.846755 19.6826459,293.58009 C18.6359985,293.27438 17.4496499,292.597086 17,291.524221 C16.5503501,292.597086 15.3640015,293.27438 14.3173541,293.58009 C13.40667,293.846086 12.4824431,293.954939 11.6199061,293.95931 Z" id="Combined-Shape-Copy-3" fill="#F8FF15" transform="translate(17.000000, 291.116843) rotate(26.000000) translate(-17.000000, -291.116843) "></path>
                        <path d="M67.6832551,15.8942665 L67.6832551,3.89751827 C67.6832551,2.84954787 68.5311259,2 69.5786354,2 L78.4482114,2 C79.4950011,2 80.3435917,2.84963704 80.3435917,3.89751827 L80.3435917,15.9156497 C81.1140534,16.5289791 81.8667574,17.0981962 82.5303372,17.2771339 C83.4968771,17.5377663 84.2723572,16.7794915 84.2852219,16.1386012 C84.2980867,15.497711 83.8171086,15.412516 83.6707327,15.4073366 C83.2252521,15.3915734 82.6789521,15.8056154 82.6712643,15.6924977 C82.6605727,15.5351819 82.8648008,15.1318537 83.3210384,14.9720666 C83.777276,14.8122794 84.109407,14.8825906 84.3198498,15.0079683 C84.5614893,15.1519324 85.043854,15.6839797 84.9967912,16.4382682 C84.9497284,17.1925568 84.4005049,18.3736519 83.2259569,19.1447287 C82.7225154,19.475232 81.6533061,19.8098781 80.3435917,19.9209883 L80.3435917,23.7789033 C80.3435917,24.8268737 79.4957209,25.6764216 78.4482114,25.6764216 L75.6864385,25.6764216 L75.6864385,31.2593983 C75.6864385,31.7971201 75.2508357,32.2336867 74.7150769,32.2336867 L73.2705146,32.2336867 C72.7338974,32.2336867 72.2991531,31.7976809 72.2991531,31.2593983 L72.2991531,25.6764216 L69.5786354,25.6764216 C68.5318457,25.6764216 67.6832551,24.8267846 67.6832551,23.7789033 L67.6832551,19.9232317 C66.3613133,19.8144457 65.2809202,19.4774875 64.7740431,19.1447287 C63.5994951,18.3736519 63.0502716,17.1925568 63.0032088,16.4382682 C62.956146,15.6839797 63.4385107,15.1519324 63.6801502,15.0079683 C63.890593,14.8825906 64.222724,14.8122794 64.6789616,14.9720666 C65.1351992,15.1318537 65.3394273,15.5351819 65.3287357,15.6924977 C65.3210479,15.8056154 64.7747479,15.3915734 64.3292673,15.4073366 C64.1828914,15.412516 63.7019133,15.497711 63.7147781,16.1386012 C63.7276428,16.7794915 64.5031229,17.5377663 65.4696628,17.2771339 C66.1409481,17.0961184 66.9034394,16.515707 67.6832551,15.8942665 Z M68.6199061,15.1538526 C69.2028921,14.7085979 69.7791273,14.3199957 70.317986,14.1365979 C71.7675916,13.643232 73.4062823,13.8939041 74,15.5746892 C74.5937177,13.8939041 76.2324084,13.643232 77.682014,14.1365979 C78.222878,14.3206782 78.8013972,14.711493 79.3866027,15.1588258 L79.3866027,3.88732522 C79.3866027,3.36381637 78.9621407,2.93886183 78.4380424,2.93886183 L69.5684663,2.93886183 C69.0439147,2.93886183 68.6199061,3.36346014 68.6199061,3.88732522 L68.6199061,15.1538526 Z M68.6199061,19.9593099 L68.6199061,23.7687103 C68.6199061,24.2922192 69.044368,24.7171737 69.5684663,24.7171737 L78.4380424,24.7171737 C78.962594,24.7171737 79.3866027,24.2925754 79.3866027,23.7687103 L79.3866027,19.9593409 C78.5222074,19.9554858 77.5956211,19.8467555 76.6826459,19.5800896 C75.6359985,19.2743801 74.4496499,18.5970861 74,17.5242213 C73.5503501,18.5970861 72.3640015,19.2743801 71.3173541,19.5800896 C70.40667,19.8460863 69.4824431,19.9549391 68.6199061,19.9593099 Z" id="Combined-Shape-Copy-4" fill="#F4FF7E" transform="translate(74.000000, 17.116843) rotate(61.000000) translate(-74.000000, -17.116843) "></path>
                    </g>
                    <g id="Group-Copy-3" transform="translate(29.809519, 314.955525) rotate(8.000000) translate(-29.809519, -314.955525) translate(5.309519, 281.455525)" fill="#FF8383" opacity="0.701936141">
                        <path d="M10.3403996,30.6778653 L10.3403996,4.18962812 C10.3403996,1.8757604 12.2124572,-1.16529009e-12 14.5253072,-1.16529009e-12 L34.1089001,-1.16529009e-12 C36.4201608,-1.16529009e-12 38.2938078,1.8759573 38.2938078,4.18962812 L38.2938078,30.7250783 C39.9949497,32.0792799 41.6568835,33.3360836 43.1220355,33.7311693 C45.2561086,34.306633 46.9683309,32.632399 46.9967357,31.2173445 C47.0251404,29.8022899 45.9631642,29.6141837 45.6399734,29.6027477 C44.6563738,29.5679434 43.4501699,30.4821279 43.4331956,30.2323695 C43.409589,29.885024 43.8605149,28.9944949 44.8678654,28.6416926 C45.8752158,28.2888904 46.6085449,28.444134 47.0731924,28.7209619 C47.6067205,29.0388275 48.6717584,30.2135622 48.567846,31.8789947 C48.4639336,33.5444272 47.2512748,36.1522277 44.65793,37.8547278 C43.5463557,38.5844631 41.1855934,39.3233454 38.2938078,39.5686712 L38.2938078,48.0867603 C38.2938078,50.400628 36.4217501,52.2763884 34.1089001,52.2763884 L28.0110396,52.2763884 L28.0110396,64.6033297 C28.0110396,65.7905933 27.0492499,66.754511 25.8663206,66.754511 L22.6767971,66.754511 C21.4919725,66.754511 20.5320781,65.7918315 20.5320781,64.6033297 L20.5320781,52.2763884 L14.5253072,52.2763884 C12.2140466,52.2763884 10.3403996,50.4004311 10.3403996,48.0867603 L10.3403996,39.5736246 C7.42161643,39.3334304 5.0361609,38.589443 3.91700093,37.8547278 C1.32365614,36.1522277 0.110997355,33.5444272 0.00708493424,31.8789947 C-0.096827487,30.2135622 0.968210409,29.0388275 1.5017385,28.7209619 C1.966386,28.444134 2.6997151,28.2888904 3.70706555,28.6416926 C4.71441601,28.9944949 5.16534189,29.885024 5.14173532,30.2323695 C5.12476104,30.4821279 3.91855716,29.5679434 2.93495754,29.6027477 C2.61176674,29.6141837 1.5497905,29.8022899 1.57819526,31.2173445 C1.60660001,32.632399 3.3188223,34.306633 5.45289546,33.7311693 C6.9350607,33.3314959 8.61860447,32.0499757 10.3403996,30.6778653 Z M12.4084795,29.0430674 C13.6956843,28.0599666 14.9679837,27.2019518 16.1577575,26.7970183 C19.3584161,25.7076905 22.9765657,26.2611623 24.2874655,29.9722541 C25.5983652,26.2611623 29.2165148,25.7076905 32.4171734,26.7970183 C33.6113748,27.2034587 34.8887171,28.0663588 36.1808224,29.0540479 L36.1808224,4.16712238 C36.1808224,3.01124027 35.243631,2.0729613 34.0864474,2.0729613 L14.5028545,2.0729613 C13.34467,2.0729613 12.4084795,3.01045373 12.4084795,4.16712238 L12.4084795,29.0430674 Z M12.4084795,39.6532835 L12.4084795,48.0642545 C12.4084795,49.2201366 13.3456709,50.1584156 14.5028545,50.1584156 L34.0864474,50.1584156 C35.2446319,50.1584156 36.1808224,49.2209232 36.1808224,48.0642545 L36.1808224,39.6533519 C34.2722796,39.6448401 32.226422,39.4047688 30.2106173,38.8159836 C27.8996706,38.1409919 25.2802705,36.6455595 24.2874655,34.2767262 C23.2946604,36.6455595 20.6752603,38.1409919 18.3643137,38.8159836 C16.3535675,39.4032913 14.3129193,39.643633 12.4084795,39.6532835 Z" id="Combined-Shape"></path>
                    </g>
                    <path d="M368.728,86.8099781 L368.728,63.2404037 C368.728,61.1814944 370.393781,59.5124186 372.451785,59.5124186 L389.877518,59.5124186 C391.934107,59.5124186 393.601303,61.1816696 393.601303,63.2404037 L393.601303,86.8519888 C395.115001,88.0569748 396.593811,89.175295 397.897522,89.5268473 C399.796448,90.0389023 401.320005,88.5491473 401.34528,87.2900136 C401.370555,86.0308799 400.425595,85.8635005 400.138015,85.8533246 C399.262796,85.8223553 398.1895,86.6358084 398.174396,86.4135702 C398.153391,86.1044977 398.55463,85.3120935 399.450984,84.9981655 C400.347337,84.6842375 400.999863,84.8223752 401.413312,85.0687003 C401.888052,85.3515412 402.835737,86.3968352 402.743274,87.8787585 C402.650812,89.3606817 401.571772,91.6811363 399.264181,93.1960427 C398.275087,93.8453706 396.174451,94.5028376 393.601303,94.7211317 L393.601303,102.300637 C393.601303,104.359546 391.935522,106.028622 389.877518,106.028622 L384.451563,106.028622 L384.451563,116.997293 C384.451563,118.053735 383.59575,118.911442 382.543165,118.911442 L379.705086,118.911442 C378.650813,118.911442 377.796687,118.054837 377.796687,116.997293 L377.796687,106.028622 L372.451785,106.028622 C370.395195,106.028622 368.728,104.359371 368.728,102.300637 L368.728,94.7255392 C366.130829,94.5118113 364.00822,93.8498018 363.012377,93.1960427 C360.704786,91.6811363 359.625746,89.3606817 359.533284,87.8787585 C359.440821,86.3968352 360.388506,85.3515412 360.863246,85.0687003 C361.276695,84.8223752 361.929221,84.6842375 362.825574,84.9981655 C363.721928,85.3120935 364.123167,86.1044977 364.102162,86.4135702 C364.087058,86.6358084 363.013762,85.8223553 362.138543,85.8533246 C361.850963,85.8635005 360.906003,86.0308799 360.931278,87.2900136 C360.956553,88.5491473 362.48011,90.0389023 364.379036,89.5268473 C365.697886,89.1712128 367.195925,88.0308996 368.728,86.8099781 Z M370.568204,85.3553139 C371.713576,84.4805381 372.845684,83.7170656 373.90436,83.3567505 C376.752347,82.3874525 379.971823,82.8799389 381.138279,86.1821162 C382.304734,82.8799389 385.52421,82.3874525 388.372198,83.3567505 C389.434813,83.7184064 390.571409,84.486226 391.721141,85.3650845 L391.721141,63.2203778 C391.721141,62.191859 390.887216,61.3569663 389.857539,61.3569663 L372.431806,61.3569663 C371.401239,61.3569663 370.568204,62.1911591 370.568204,63.2203778 L370.568204,85.3553139 Z M370.568204,94.7964207 L370.568204,102.280611 C370.568204,103.30913 371.402129,104.144023 372.431806,104.144023 L389.857539,104.144023 C390.888107,104.144023 391.721141,103.30983 391.721141,102.280611 L391.721141,94.7964816 C390.022895,94.7889077 388.202465,94.5752892 386.408776,94.0513805 C384.352466,93.4507643 382.02169,92.1201093 381.138279,90.0122908 C380.254868,92.1201093 377.924092,93.4507643 375.867782,94.0513805 C374.078594,94.5739745 372.262799,94.7878336 370.568204,94.7964207 Z" id="Combined-Shape-Copy" fill="#FFAB59" opacity="0.695369112" transform="translate(381.138279, 89.211930) rotate(-45.000000) translate(-381.138279, -89.211930) "></path>
                </g>
            </g>
        </g>
    </g>
</svg>