<?xml version="1.0" encoding="UTF-8"?>
<svg width="36px" height="36px" viewBox="0 0 36 36" version="1.1" xmlns="http://www.w3.org/2000/svg" xmlns:xlink="http://www.w3.org/1999/xlink">
    <!-- Generator: Sketch 43 (38999) - http://www.bohemiancoding.com/sketch -->
    <title></title>
    <desc>Created with Sketch.</desc>
    <defs></defs>
    <g id="web" stroke="none" stroke-width="1" fill="none" fill-rule="evenodd">
        <g id="Home" transform="translate(-681.000000, -1109.000000)" fill="#313131">
            <g id="Group" transform="translate(252.000000, 869.000000)">
                <g id="Group-5" transform="translate(372.000000, 21.000000)">
                    <g id="Group-4" transform="translate(0.000000, 219.000000)">
                        <path d="M80.5123767,17.7154181 C80.5123767,14.5225621 77.9082742,11.9184596 74.7154181,11.9184596 C71.5225621,11.9184596 68.9184596,14.5225621 68.9184596,17.7154181 C68.9184596,20.9082742 71.5225621,23.5123767 74.7154181,23.5123767 C77.9082742,23.5123767 80.5123767,20.9082742 80.5123767,17.7154181 Z M83.6372997,17.7154181 C83.6372997,22.6518907 79.6518907,26.6372997 74.7154181,26.6372997 C69.7789456,26.6372997 65.7935366,22.6518907 65.7935366,17.7154181 C65.7935366,12.7789456 69.7789456,8.79353661 74.7154181,8.79353661 C79.6518907,8.79353661 83.6372997,12.7789456 83.6372997,17.7154181 Z M86.0828915,8.4312267 C86.0828915,9.58608954 85.1544724,10.5145087 83.9996096,10.5145087 C82.8447467,10.5145087 81.9163276,9.58608954 81.9163276,8.4312267 C81.9163276,7.27636387 82.8447467,6.34794472 83.9996096,6.34794472 C85.1544724,6.34794472 86.0828915,7.27636387 86.0828915,8.4312267 Z M74.7154181,3.44946545 C72.1792488,3.44946545 66.7446001,3.24566612 64.4575188,4.1514409 C63.6649659,4.46846207 63.0762123,4.85341635 62.4648143,5.46481432 C61.8534163,6.07621229 61.4684621,6.66496589 61.1514409,7.45751882 C60.2456661,9.74460013 60.4494654,15.1792488 60.4494654,17.7154181 C60.4494654,20.2515875 60.2456661,25.6862361 61.1514409,27.9733175 C61.4684621,28.7658704 61.8534163,29.354624 62.4648143,29.966022 C63.0762123,30.5774199 63.6649659,30.9623742 64.4575188,31.2793954 C66.7446001,32.1851701 72.1792488,31.9813708 74.7154181,31.9813708 C77.2515875,31.9813708 82.6862361,32.1851701 84.9733175,31.2793954 C85.7658704,30.9623742 86.354624,30.5774199 86.966022,29.966022 C87.5774199,29.354624 87.9623742,28.7658704 88.2793954,27.9733175 C89.1851701,25.6862361 88.9813708,20.2515875 88.9813708,17.7154181 C88.9813708,15.1792488 89.1851701,9.74460013 88.2793954,7.45751882 C87.9623742,6.66496589 87.5774199,6.07621229 86.966022,5.46481432 C86.354624,4.85341635 85.7658704,4.46846207 84.9733175,4.1514409 C82.6862361,3.24566612 77.2515875,3.44946545 74.7154181,3.44946545 Z M92.1062938,17.7154181 C92.1062938,20.1157213 92.1289382,22.4933801 91.9930719,24.8936832 C91.8572057,27.6789406 91.2231634,30.1471769 89.1851701,32.1851701 C87.1471769,34.2231634 84.6789406,34.8572057 81.8936832,34.9930719 C79.4933801,35.1289382 77.1157213,35.1062938 74.7154181,35.1062938 C72.315115,35.1062938 69.9374562,35.1289382 67.5371531,34.9930719 C64.7518956,34.8572057 62.2836594,34.2231634 60.2456661,32.1851701 C58.2076729,30.1471769 57.5736305,27.6789406 57.4377643,24.8936832 C57.3018981,22.4933801 57.3245425,20.1157213 57.3245425,17.7154181 C57.3245425,15.315115 57.3018981,12.9374562 57.4377643,10.5371531 C57.5736305,7.75189562 58.2076729,5.28365936 60.2456661,3.24566612 C62.2836594,1.20767288 64.7518956,0.57363054 67.5371531,0.437764323 C69.9374562,0.301898107 72.315115,0.324542477 74.7154181,0.324542477 C77.1157213,0.324542477 79.4933801,0.301898107 81.8936832,0.437764323 C84.6789406,0.57363054 87.1471769,1.20767288 89.1851701,3.24566612 C91.2231634,5.28365936 91.8572057,7.75189562 91.9930719,10.5371531 C92.1289382,12.9374562 92.1062938,15.315115 92.1062938,17.7154181 Z" id=""></path>
                    </g>
                </g>
            </g>
        </g>
    </g>
</svg>