<?xml version="1.0" encoding="UTF-8"?>
<svg width="32px" height="39px" viewBox="0 0 32 39" version="1.1" xmlns="http://www.w3.org/2000/svg" xmlns:xlink="http://www.w3.org/1999/xlink">
    <!-- Generator: Sketch 43 (38999) - http://www.bohemiancoding.com/sketch -->
    <title>Group 3 Copy 6</title>
    <desc>Created with Sketch.</desc>
    <defs></defs>
    <g id="web" stroke="none" stroke-width="1" fill="none" fill-rule="evenodd">
        <g id="Home" transform="translate(-668.000000, -3651.000000)">
            <g id="Group-8-Copy-2" transform="translate(0.000000, 3542.000000)">
                <g id="Group-3-Copy-6" transform="translate(668.000000, 109.000000)">
                    <path d="M5.44385239,28.2838963 L16.0395958,38.9166965 L27.8656499,27.0906424 L27.7665028,27.0911668 C30.3946854,24.2139102 32,20.3703837 32,16.1484375 C32,7.22990174 24.836556,0 16,0 C7.163444,0 0,7.22990174 0,16.1484375 C0,20.9846694 2.10643946,25.3243516 5.44385239,28.2838963 Z" id="Combined-Shape" fill="#3A3B3D"></path>
                    <g id="Group" transform="translate(7.291727, 7.406250)">
                        <g id="Group-Copy" transform="translate(3.715530, 0.000000)">
                            <path d="M6.34944407,18.4616905 L6.34944407,23.3735657 C6.34944407,23.8031192 6.00385217,24.1518658 5.57880001,24.1518658 L4.43273509,24.1518658 C4.00700193,24.1518658 3.66209103,23.8035672 3.66209103,23.3735657 L3.66209103,18.4616905 L6.34944407,18.4616905 Z" id="Rectangle" fill="#FFFFFF" fill-rule="nonzero"></path>
                            <path d="M0,1.51581271 C0,0.678652467 0.672670896,0 1.50372805,0 L8.54053755,0 C9.37102362,0 10.0442656,0.678723705 10.0442656,1.51581271 L10.0442656,17.3978502 C10.0442656,18.2350104 9.3715947,18.9136629 8.54053755,18.9136629 L1.50372805,18.9136629 C0.673241978,18.9136629 0,18.2349392 0,17.3978502 L0,1.51581271 Z" id="Path" fill="#FFFFFF"></path>
                            <path d="M0.743105951,1.50767011 L0.743105951,17.3897076 C0.743105951,17.8079072 1.07985913,18.1473777 1.49566029,18.1473777 L8.53246979,18.1473777 C8.94863058,18.1473777 9.28502413,17.8081917 9.28502413,17.3897076 L9.28502413,1.50767011 C9.28502413,1.08947051 8.94827094,0.75 8.53246979,0.75 L1.49566029,0.75 C1.07949949,0.75 0.743105951,1.08918594 0.743105951,1.50767011 Z" id="Path" fill="#3A3B3D"></path>
                        </g>
                        <g id="Group-2" transform="translate(0.000000, 9.515625)" fill="#FFFFFF">
                            <path d="M11.6481932,0.179569853 C12.8777519,0.600931691 14.3525978,2.37826027 15.4946822,2.68835436 C16.261501,2.89655785 16.8767396,2.29081789 16.886946,1.77884939 C16.8971525,1.26688088 16.5155614,1.1988238 16.3994319,1.19468624 C16.0460033,1.182094 15.612588,1.51284711 15.6064888,1.4224842 C15.5980065,1.29681416 15.7600339,0.974619629 16.1219968,0.846975326 C16.4839596,0.719331023 16.7474607,0.775498362 16.9144186,0.87565505 C17.1061268,0.990659236 17.488818,1.4156797 17.45148,2.01823526 C17.414142,2.62079083 16.9784074,3.56429635 16.0465624,4.180263 C15.3076819,4.66867662 13.0327143,5.16841547 10.8553297,4.52804655 C9.672795,4.180263 8.26548203,3.23047676 8.64154478,1.62334751 C9.01760753,0.0162182708 10.4186345,-0.241791985 11.6481932,0.179569853 Z" id="Path-2-Copy"></path>
                            <path d="M3.06871635,0.179569853 C4.29827509,0.600931691 5.77312093,2.37826027 6.91520537,2.68835436 C7.68202413,2.89655785 8.29726271,2.29081789 8.30746916,1.77884939 C8.3176756,1.26688088 7.93608452,1.1988238 7.81995506,1.19468624 C7.46652639,1.182094 7.03311118,1.51284711 7.02701195,1.4224842 C7.0185296,1.29681416 7.18055705,0.974619629 7.54251991,0.846975326 C7.90448276,0.719331023 8.16798381,0.775498362 8.33494173,0.87565505 C8.52664994,0.990659236 8.90934114,1.4156797 8.87200316,2.01823526 C8.83466517,2.62079083 8.39893058,3.56429635 7.46708558,4.180263 C6.728205,4.66867662 4.45323739,5.16841547 2.27585288,4.52804655 C1.09331814,4.180263 -0.313994827,3.23047676 0.0620679194,1.62334751 C0.438130666,0.0162182708 1.8391576,-0.241791985 3.06871635,0.179569853 Z" id="Path-2-Copy-2" transform="translate(4.437274, 2.415546) scale(-1, 1) translate(-4.437274, -2.415546) "></path>
                        </g>
                    </g>
                </g>
            </g>
        </g>
    </g>
</svg>