<?xml version="1.0" encoding="UTF-8"?>
<svg width="168px" height="168px" viewBox="0 0 168 168" version="1.1" xmlns="http://www.w3.org/2000/svg" xmlns:xlink="http://www.w3.org/1999/xlink">
    <!-- Generator: Sketch 43 (38999) - http://www.bohemiancoding.com/sketch -->
    <title>Group 3</title>
    <desc>Created with Sketch.</desc>
    <defs></defs>
    <g id="web" stroke="none" stroke-width="1" fill="none" fill-rule="evenodd">
        <g id="Home" transform="translate(-653.000000, -4932.000000)">
            <g id="Footer" transform="translate(-1.000000, 4860.000000)">
                <g id="Group-8" transform="translate(628.000000, 74.000000)">
                    <g id="Group-14">
                        <g id="Logo" transform="translate(28.000000, 0.000000)">
                            <g id="Group-6">
                                <g id="Group-3">
                                    <circle id="Oval" stroke="#FFFFFF" stroke-width="3" cx="82" cy="82" r="82"></circle>
                                    <g id="Group-Copy" transform="translate(56.888244, 21.660377)" fill="#FFFFFF">
                                        <path d="M32.5409009,93.7464459 L32.5409009,118.688411 C32.5409009,120.869637 30.7697424,122.640534 28.5913501,122.640534 L22.7177673,122.640534 C20.5358849,122.640534 18.7682166,120.871911 18.7682166,118.688411 L18.7682166,93.7464459 L32.5409009,93.7464459 Z" id="Rectangle" fill-rule="nonzero"></path>
                                        <path d="M0,7.69713121 C0,3.44612303 3.44743834,0 7.70660623,0 L43.7702549,0 C48.026496,0 51.4768612,3.44648476 51.4768612,7.69713121 L51.4768612,88.344381 C51.4768612,92.5953892 48.0294228,96.0415122 43.7702549,96.0415122 L7.70660623,96.0415122 C3.45036514,96.0415122 0,92.5950275 0,88.344381 L0,7.69713121 Z M3.808418,7.65578395 L3.808418,88.3030338 C3.808418,90.4266056 5.53427806,92.1503997 7.66525897,92.1503997 L43.7289077,92.1503997 C45.8617317,92.1503997 47.5857486,90.4280506 47.5857486,88.3030338 L47.5857486,7.65578395 C47.5857486,5.53221213 45.8598886,3.808418 43.7289077,3.808418 L7.66525897,3.808418 C5.5324349,3.808418 3.808418,5.5307671 3.808418,7.65578395 Z" id="Combined-Shape"></path>
                                    </g>
                                    <g id="Group-2" transform="translate(37.846154, 69.979681)" fill="#FFFFFF">
                                        <path d="M59.6969902,0.911836079 C65.9984787,3.05146542 73.5570637,12.0765456 79.4102464,13.6511695 C83.3401926,14.708404 86.4932903,11.6325228 86.5455983,9.03280269 C86.5979064,6.43308259 84.6422521,6.08749617 84.0470886,6.06648612 C82.2357667,6.00254411 80.0145137,7.68207221 79.9832552,7.22321924 C79.9397831,6.58508053 80.7701738,4.94901192 82.6252334,4.3008481 C84.4802931,3.65268429 85.8307359,3.93789589 86.6863953,4.4464806 C87.6688998,5.03045928 89.6301923,7.18866671 89.4388351,10.248378 C89.2474779,13.3080893 87.0143382,18.0991071 82.2386325,21.2269185 C78.4518696,23.7070294 66.7926605,26.2446487 55.6335649,22.9929253 C49.5730744,21.2269185 42.3605954,16.4040078 44.287917,8.24318119 C46.2152386,0.0823546056 53.3955016,-1.22779326 59.6969902,0.911836079 Z" id="Path-2-Copy"></path>
                                        <path d="M15.7271713,0.911836079 C22.0286598,3.05146542 29.5872447,12.0765456 35.4404275,13.6511695 C39.3703736,14.708404 42.5234714,11.6325228 42.5757794,9.03280269 C42.6280875,6.43308259 40.6724332,6.08749617 40.0772697,6.06648612 C38.2659477,6.00254411 36.0446948,7.68207221 36.0134363,7.22321924 C35.9699642,6.58508053 36.8003549,4.94901192 38.6554145,4.3008481 C40.5104742,3.65268429 41.860917,3.93789589 42.7165764,4.4464806 C43.6990809,5.03045928 45.6603734,7.18866671 45.4690162,10.248378 C45.277659,13.3080893 43.0445192,18.0991071 38.2688136,21.2269185 C34.4820506,23.7070294 22.8228416,26.2446487 11.663746,22.9929253 C5.60325547,21.2269185 -1.60922349,16.4040078 0.318098087,8.24318119 C2.24541966,0.0823546056 9.42568272,-1.22779326 15.7271713,0.911836079 Z" id="Path-2-Copy-2" transform="translate(22.741032, 12.265880) scale(-1, 1) translate(-22.741032, -12.265880) "></path>
                                    </g>
                                </g>
                            </g>
                        </g>
                    </g>
                </g>
            </g>
        </g>
    </g>
</svg>